HIERARCHY
ROOT Hips
{
	OFFSET 15.585500 22.159004 44.358299
	CHANNELS 6 Xposition Yposition Zposition Zrotation Xrotation Yrotation
	JOINT Chest
	{
		OFFSET -0.128500 0.160400 6.566002
		CHANNELS 6 Xposition Yposition Zposition Zrotation Xrotation Yrotation
		JOINT Chest2
		{
			OFFSET 0.000000 0.000000 3.554802
			CHANNELS 6 Xposition Yposition Zposition Zrotation Xrotation Yrotation
			JOINT Neck
			{
				OFFSET 0.000000 0.000000 8.267998
				CHANNELS 6 Xposition Yposition Zposition Zrotation Xrotation Yrotation
				JOINT Head
				{
					OFFSET 0.000000 0.000002 2.173897
					CHANNELS 6 Xposition Yposition Zposition Zrotation Xrotation Yrotation
					End Site
					{
						OFFSET 0.000000 0.000000 7.718697
					}
				}
			}
			JOINT LeftCollar
			{
				OFFSET 2.057500 0.117599 5.946301
				CHANNELS 6 Xposition Yposition Zposition Zrotation Xrotation Yrotation
				JOINT LeftShoulder
				{
					OFFSET 4.957699 0.000000 0.000000
					CHANNELS 6 Xposition Yposition Zposition Zrotation Xrotation Yrotation
					JOINT LeftElbow
					{
						OFFSET 0.000000 0.000000 -8.465500
						CHANNELS 6 Xposition Yposition Zposition Zrotation Xrotation Yrotation
						JOINT LeftWrist
						{
							OFFSET 0.000000 -0.000002 -14.594898
							CHANNELS 6 Xposition Yposition Zposition Zrotation Xrotation Yrotation
							End Site
							{
								OFFSET 0.000000 0.000000 -2.173901
							}
						}
					}
				}
			}
			JOINT RightCollar
			{
				OFFSET -3.048500 -0.728800 6.604099
				CHANNELS 6 Xposition Yposition Zposition Zrotation Xrotation Yrotation
				JOINT RightShoulder
				{
					OFFSET -3.710299 0.000000 0.000000
					CHANNELS 6 Xposition Yposition Zposition Zrotation Xrotation Yrotation
					JOINT RightElbow
					{
						OFFSET 0.000000 0.000000 -10.450901
						CHANNELS 6 Xposition Yposition Zposition Zrotation Xrotation Yrotation
						JOINT RightWrist
						{
							OFFSET 0.000000 0.000000 -12.539200
							CHANNELS 6 Xposition Yposition Zposition Zrotation Xrotation Yrotation
							End Site
							{
								OFFSET 0.000000 -0.000002 -2.173901
							}
						}
					}
				}
			}
		}
	}
	JOINT LeftHip
	{
		OFFSET 2.442599 -0.601400 -2.767502
		CHANNELS 6 Xposition Yposition Zposition Zrotation Xrotation Yrotation
		JOINT LeftKnee
		{
			OFFSET 0.000000 -0.000002 -17.033703
			CHANNELS 6 Xposition Yposition Zposition Zrotation Xrotation Yrotation
			JOINT LeftAnkle
			{
				OFFSET 0.000000 -0.000002 -19.318800
				CHANNELS 6 Xposition Yposition Zposition Zrotation Xrotation Yrotation
				End Site
				{
					OFFSET 0.000000 -8.281900 0.000000
				}
			}
		}
	}
	JOINT RightHip
	{
		OFFSET -3.126200 -0.601400 -2.283501
		CHANNELS 6 Xposition Yposition Zposition Zrotation Xrotation Yrotation
		JOINT RightKnee
		{
			OFFSET 0.000000 -0.000002 -16.919401
			CHANNELS 6 Xposition Yposition Zposition Zrotation Xrotation Yrotation
			JOINT RightAnkle
			{
				OFFSET 0.000000 -0.000002 -18.035900
				CHANNELS 6 Xposition Yposition Zposition Zrotation Xrotation Yrotation
				End Site
				{
					OFFSET 0.000000 -9.230099 0.000000
				}
			}
		}
	}
}
MOTION
Frames: 4
Frame Time: 0.041667
23.575701 37.306107 8.535896 10.142727 19.119364 -14.464522 -0.128496 0.160403 6.566005 -6.185952 7.273370 -9.175726 0.000000 -0.000002 3.554800 15.690242 -11.031941 2.155847 0.000002 -0.000004 8.267997 -52.378846 -13.617549 23.072792 0.000002 -0.000001 2.173898 -3.445629 6.706963 -7.109293 2.057500 0.117600 5.946304 -1.210295 -7.401207 11.874241 4.957697 -0.000001 0.000007 -11.283174 25.006943 -105.711500 0.000002 0.000001 -8.465498 568.045851 -157.485803 212.550706 0.000005 0.000000 -14.594894 -1026.627375 -20.864595 -357.610345 -3.048505 -0.728804 6.604100 29.377405 4.546194 -9.433411 -3.710298 0.000007 0.000002 32.903016 3.512676 103.655217 -0.000001 0.000007 -10.450898 1065.573988 -68.004963 1050.401460 0.000003 -0.000000 -12.539192 105.856669 186.057536 -188.770132 2.442598 -0.601396 -2.767506 128.929437 -6.157267 99.348161 -0.000002 0.000004 -17.033710 -159.655986 48.516907 177.995932 -0.000002 -0.000001 -19.318802 -145.564117 121.175383 397.461248 -3.126194 -0.601396 -2.283496 -141.754142 2.085424 -122.078635 -0.000005 -0.000002 -16.919395 363.992993 -56.220254 -191.347968 0.000001 -0.000002 -18.035896 189.660993 53.290464 -187.307679
23.574398 37.307602 8.535400 10.135715 19.103568 -14.429794 -0.128499 0.160402 6.566000 -6.171225 7.265395 -9.238243 -0.000001 0.000000 3.554804 15.660924 -11.026377 2.150220 0.000001 0.000002 8.267994 -52.367750 -13.636262 23.105775 0.000002 -0.000003 2.173890 -3.444063 6.697601 -7.099091 2.057505 0.117605 5.946307 -1.213386 -7.400726 11.848552 4.957699 0.000003 0.000002 -11.295234 24.907620 -105.638772 0.000001 0.000002 -8.465494 567.860452 -157.430506 212.408693 0.000001 -0.000003 -14.594894 -1026.644313 -20.885969 -357.745720 -3.048502 -0.728800 6.604099 29.377812 4.552495 -9.386534 -3.710294 0.000002 0.000002 32.922898 3.482285 103.603089 -0.000004 0.000011 -10.450901 1065.570381 -67.969043 1050.412607 0.000001 -0.000001 -12.539196 105.900601 186.056388 -188.637981 2.442592 -0.601398 -2.767498 128.923564 -6.258049 99.356262 -0.000004 0.000008 -17.033709 -159.596563 48.534819 177.999675 -0.000002 -0.000004 -19.318806 -145.563024 121.177842 397.456084 -3.126197 -0.601399 -2.283495 -141.749033 2.081873 -122.045085 -0.000005 -0.000006 -16.919401 364.053946 -56.235461 -191.295799 0.000002 -0.000001 -18.035894 189.702603 53.287879 -187.316913
23.573200 37.309204 8.534698 10.129096 19.087215 -14.399835 -0.128496 0.160401 6.566005 -6.158343 7.256653 -9.292536 -0.000002 -0.000003 3.554804 15.624053 -11.023218 2.142223 0.000000 -0.000002 8.267998 -52.351778 -13.648110 23.138948 0.000001 0.000002 2.173898 -3.439767 6.687951 -7.088501 2.057505 0.117603 5.946307 -1.214311 -7.402946 11.814453 4.957697 0.000002 0.000007 -11.304480 24.789454 -105.553101 0.000001 0.000001 -8.465498 567.646421 -157.370373 212.267089 0.000002 0.000000 -14.594894 -1026.654914 -20.905601 -357.885602 -3.048501 -0.728800 6.604102 29.385673 4.566470 -9.333542 -3.710293 0.000007 0.000002 32.942825 3.440452 103.549015 -0.000003 0.000006 -10.450893 1065.568086 -67.936101 1050.422879 0.000003 -0.000002 -12.539186 105.944847 186.054667 -188.498003 2.442595 -0.601403 -2.767498 128.917307 -6.350775 99.361337 -0.000000 -0.000008 -17.033705 -159.543998 48.551727 178.005480 -0.000004 0.000000 -19.318806 -145.563024 121.180219 397.451276 -3.126194 -0.601402 -2.283497 -141.743555 2.078146 -122.014882 -0.000004 -0.000005 -16.919397 364.116456 -56.249422 -191.244518 0.000002 -0.000003 -18.035896 189.743215 53.285349 -187.325629
23.572100 37.310802 8.534000 10.122467 19.069787 -14.374370 -0.128499 0.160399 6.566007 -6.147092 7.248177 -9.338900 -0.000004 0.000000 3.554810 15.580555 -11.022234 2.131969 0.000002 0.000001 8.268000 -52.330478 -13.652993 23.171960 0.000001 -0.000007 2.173899 -3.433786 6.678115 -7.077010 2.057508 0.117600 5.946304 -1.213800 -7.407426 11.774160 4.957694 -0.000003 0.000004 -11.310307 24.652586 -105.457356 0.000005 0.000001 -8.465505 567.407310 -157.305049 212.125895 -0.000001 0.000002 -14.594896 -1026.656553 -20.921366 -358.024036 -3.048501 -0.728798 6.604101 29.401799 4.588244 -9.277450 -3.710295 0.000005 0.000002 32.960782 3.390600 103.497126 -0.000003 0.000009 -10.450901 1065.561420 -67.905877 1050.428234 0.000004 -0.000001 -12.539196 105.989277 186.053588 -188.351127 2.442598 -0.601398 -2.767508 128.910955 -6.436190 99.363188 -0.000002 0.000002 -17.033710 -159.498195 48.567587 178.013281 -0.000003 -0.000003 -19.318800 -145.564268 121.182391 397.447041 -3.126197 -0.601400 -2.283504 -141.737463 2.073517 -121.987629 -0.000003 -0.000003 -16.919395 364.177818 -56.262167 -191.195587 0.000001 -0.000002 -18.035898 189.780604 53.282944 -187.333019
